<?xml version="1.0" encoding="UTF-8" standalone="no"?>
<svg
   version="1.1"
   viewBox="0.00 0.00 1157.00 276.00"
   id="svg20"
   sodipodi:docname="logo.svg"
   inkscape:version="1.2.2 (b0a8486541, 2022-12-01)"
   xmlns:inkscape="http://www.inkscape.org/namespaces/inkscape"
   xmlns:sodipodi="http://sodipodi.sourceforge.net/DTD/sodipodi-0.dtd"
   xmlns="http://www.w3.org/2000/svg"
   xmlns:svg="http://www.w3.org/2000/svg">
  <defs
     id="defs24" />
  <sodipodi:namedview
     id="namedview22"
     pagecolor="#f5f3f2"
     bordercolor="#000000"
     borderopacity="0.25"
     inkscape:showpageshadow="2"
     inkscape:pageopacity="0"
     inkscape:pagecheckerboard="0"
     inkscape:deskcolor="#d1d1d1"
     showgrid="false"
     inkscape:zoom="1.8481339"
     inkscape:cx="684.74476"
     inkscape:cy="119.85062"
     inkscape:window-width="1920"
     inkscape:window-height="971"
     inkscape:window-x="0"
     inkscape:window-y="32"
     inkscape:window-maximized="1"
     inkscape:current-layer="svg20" />
  <path
     fill="#26d3e3"
     d="   M 324.42 52.68   L 326.08 54.52   A 0.32 0.32 0.0 0 1 325.68 55.02   L 324.70 54.46   A 0.28 0.28 0.0 0 0 324.31 54.82   Q 324.88 55.98 324.30 56.76   A 0.89 0.87 -63.1 0 1 323.35 57.08   C 319.72 56.03 316.72 54.62 313.72 53.91   Q 294.09 49.27 278.48 51.13   Q 256.79 53.72 238.61 63.72   Q 225.82 70.76 214.96 80.48   C 207.41 87.25 200.85 94.25 193.02 103.47   Q 178.89 120.11 163.59 132.84   Q 147.35 146.35 126.86 153.68   Q 121.17 155.72 117.96 156.39   C 113.50 157.33 110.21 158.66 105.87 158.99   Q 93.82 159.90 86.64 160.22   A 1.68 1.64 2.9 0 1 84.90 158.34   Q 84.95 157.99 85.40 157.79   A 0.27 0.27 0.0 0 0 85.36 157.29   Q 84.47 157.05 84.21 157.20   A 1.10 1.07 88.8 0 1 82.75 155.76   Q 85.68 149.41 91.25 136.75   C 93.80 130.94 95.78 121.76 97.80 116.38   C 99.37 112.20 100.28 108.08 102.46 103.13   Q 109.98 86.00 111.92 82.66   Q 117.76 72.61 119.75 69.49   Q 129.40 54.40 145.02 40.32   Q 165.68 21.69 191.57 12.65   Q 201.38 9.23 209.02 8.32   C 213.19 7.83 220.55 6.69 225.70 6.65   Q 242.37 6.51 254.48 9.32   Q 273.82 13.81 291.37 23.96   Q 311.48 35.59 326.68 51.26   A 0.61 0.61 0.0 0 1 326.24 52.29   L 324.59 52.29   A 0.23 0.23 0.0 0 0 324.42 52.68   Z"
     id="path2" />
  <ellipse
     fill="#ffffff"
     cx="0.00"
     cy="0.00"
     transform="translate(1013.03,68.84) rotate(-88.2)"
     rx="21.02"
     ry="20.45"
     id="ellipse4" />
  <path
     fill="#ffffff"
     d="M 476.82917,52.289508 C 486.77583,51.436174 497.4,51.766667 508.5,51.74 c 42.64667,-0.113333 67.67,-0.2 75.07,-0.26 2.45333,-0.02 3.74,-0.01667 3.86,0.01 3.14,0.85 4.64,4.17 4.76,7.3 0.22667,6.08 0.94333,12.653333 2.15,19.72 0.007,0.05981 0.007,0.120186 0,0.18 l -0.48,5.09 c -0.0195,0.176655 -0.085,0.34554 -0.19,0.49 l -2.12,2.85 c -0.27533,0.376134 -0.71864,0.595925 -1.19,0.59 -27.84,-0.126667 -55.37667,-0.11 -82.61,0.05 -1.78,0.0067 -2.66667,0.903333 -2.66,2.69 0.04,16.38 0.0567,32.34333 0.05,47.89 0,1.68667 1.04,2.59 3.12,2.71 8.66,0.51 21.06,-0.16 29.66,0.1 9,0.27333 17.28333,0.43333 24.85,0.48 8.07,0.05 16.84,-0.78 24.88,-0.14 0.91286,0.0729 1.63318,0.80599 1.69,1.72 0.35333,5.84667 0.48333,12.69333 0.39,20.54 -0.04,3.76 -0.07,5.83333 -0.09,6.22 -0.12667,2.46 -1.26,3.91 -3.4,4.35 -0.20588,0.0465 -0.41757,0.0666 -0.63,0.06 -3.91,-0.05 -7.17,0.35 -11.08,0.38 -41.60667,0.28 -63.22,0.39667 -64.84,0.35 -2.79,-0.07 -4.84,-0.58 -4.79,2.89 0.35333,24.17333 0.34333,46.58667 -0.03,67.24 -0.02,1.05333 -0.21,3.48 -0.57,7.28 -0.0733,0.78 -0.67667,1.71 -1.81,2.79 -0.24392,0.23752 -0.57408,0.3703 -0.92,0.37 h -30.44 c -1.07312,6.2e-4 -2.03827,-0.66267 -2.43,-1.67 -1.06,-2.70667 -1.59,-5.37667 -1.59,-8.01 -0.01,-5.76 -0.31,-10.38 -0.17,-15 0.26667,-8.72 0.33333,-19.60333 0.2,-32.65 -0.06,-5.98 0.45,-14.07 0.17,-21.13 -0.12,-3.19333 -0.18333,-6.00667 -0.19,-8.44 -0.0667,-22.42667 0.007,-49.00667 0.22,-79.74 2.30535,-12.475247 -3.61907,-35.684587 9.48917,-36.750492 z"
     id="path6"
     sodipodi:nodetypes="ccscccccccccccccccccccccccccccccccccccc" />
  <path
     fill="#ffffff"
     d="   M 642.00 52.37   C 643.01 52.34 644.73 53.22 644.78 54.42   Q 645.11 64.06 645.68 72.49   C 646.23 80.67 645.68 88.57 645.71 96.04   Q 645.91 151.76 645.88 235.30   Q 645.88 242.53 645.67 244.39   Q 645.20 248.54 645.04 253.40   A 2.41 2.41 0.0 0 1 642.63 255.73   L 615.02 255.73   A 2.46 2.43 -18.4 0 1 613.07 254.77   C 610.84 251.85 611.11 249.70 611.09 245.28   Q 610.84 162.71 610.90 62.22   C 610.90 59.87 611.27 56.78 611.38 55.11   C 611.57 52.38 616.27 53.03 618.10 53.17   Q 619.51 53.29 620.89 53.21   Q 630.61 52.66 642.00 52.37   Z"
     id="path8" />
  <path
     fill="#ffffff"
     d="   M 934.52 247.58   A 1.31 1.31 0.0 0 0 932.36 246.69   C 926.51 251.72 921.10 255.11 913.40 257.26   C 883.84 265.49 853.96 255.43 835.87 230.46   Q 832.21 225.41 828.22 217.08   Q 822.02 204.15 821.59 189.67   Q 821.42 184.11 821.60 175.07   C 821.86 162.04 826.56 149.24 833.30 138.05   C 844.75 119.02 864.11 107.47 885.90 104.13   C 902.03 101.67 919.51 105.70 931.95 116.61   A 1.33 1.33 0.0 0 0 934.00 116.24   Q 934.16 115.94 934.13 114.98   Q 933.54 93.61 933.97 82.25   Q 934.77 61.23 935.09 55.09   A 2.12 2.12 0.0 0 1 937.15 53.09   L 966.30 52.27   A 2.58 2.55 51.1 0 1 967.01 52.35   Q 969.59 53.04 969.69 56.27   C 969.90 63.81 970.36 69.89 970.38 78.02   Q 970.57 159.93 970.48 219.27   Q 970.45 236.66 969.50 252.51   Q 969.27 256.42 965.26 255.55   A 3.62 3.47 -41.0 0 0 964.02 255.49   Q 953.16 256.75 940.45 256.32   A 3.58 3.48 -28.3 0 1 938.80 255.85   Q 936.88 254.76 935.12 252.37   A 1.62 1.61 24.7 0 1 934.82 251.57   L 934.52 247.58   Z   M 935.54 195.00   C 935.90 184.31 936.46 172.80 935.01 162.24   A 4.06 3.76 30.7 0 0 934.71 161.23   Q 926.80 143.84 909.70 138.71   Q 905.76 137.53 901.20 137.23   Q 894.86 136.81 892.56 137.12   Q 874.07 139.59 864.73 154.94   C 858.31 165.48 857.13 179.46 858.59 191.43   Q 860.47 206.99 870.15 216.41   Q 874.18 220.33 881.76 223.69   C 884.37 224.84 888.59 225.19 892.17 226.13   A 6.73 6.43 51.3 0 0 893.89 226.36   C 901.63 226.40 909.78 225.98 916.23 222.54   C 923.95 218.43 930.39 211.49 933.95 203.52   Q 935.36 200.37 935.54 195.00   Z"
     id="path10" />
  <path
     fill="#ffffff"
     d="   M 1046.33 110.37   A 1.85 1.84 -3.5 0 1 1047.95 108.54   Q 1056.32 107.50 1061.51 107.27   Q 1065.84 107.07 1067.51 107.46   Q 1069.82 107.99 1069.92 105.67   Q 1070.09 101.93 1070.54 99.88   C 1072.19 92.35 1071.02 81.37 1077.07 76.44   A 2.26 2.13 -73.2 0 1 1077.73 76.06   L 1098.07 68.54   A 1.20 1.18 -36.2 0 1 1099.21 68.71   C 1101.50 70.43 1102.25 72.36 1102.31 75.49   Q 1102.63 93.67 1102.26 105.77   A 1.47 1.46 0.9 0 0 1103.73 107.28   L 1130.67 107.28   A 2.21 2.17 -26.7 0 1 1131.95 107.69   C 1134.12 109.29 1135.09 111.15 1135.20 114.16   Q 1135.44 120.78 1136.48 130.76   Q 1136.73 133.13 1136.34 135.75   A 1.75 1.72 -15.8 0 1 1135.74 136.81   Q 1134.30 138.02 1133.63 139.52   A 2.13 2.12 11.0 0 1 1131.77 140.77   Q 1117.68 141.31 1104.56 140.83   Q 1102.26 140.75 1102.28 143.27   Q 1102.40 155.77 1102.31 193.27   C 1102.31 195.16 1102.64 197.51 1102.54 199.57   Q 1102.07 208.33 1102.70 215.51   C 1103.32 222.52 1107.79 223.91 1114.00 223.69   Q 1123.51 223.36 1131.08 223.39   Q 1137.86 223.41 1137.95 229.71   Q 1138.07 238.89 1137.97 249.09   C 1137.93 252.89 1136.58 254.77 1132.96 255.49   Q 1118.09 258.48 1101.51 257.41   Q 1079.23 255.97 1070.90 236.07   C 1069.47 232.67 1068.47 228.38 1068.14 224.85   Q 1066.79 210.48 1066.94 197.75   Q 1067.23 174.31 1066.72 144.89   C 1066.69 142.86 1066.68 140.54 1063.90 140.48   Q 1049.27 140.17 1048.92 140.08   C 1045.51 139.23 1045.91 137.16 1045.98 133.78   Q 1046.32 117.66 1046.33 110.37   Z"
     id="path12" />
  <path
     fill="#ffffff"
     d="   M 1001.62 255.43   A 5.42 5.42 0.0 0 1 996.20 250.01   L 996.20 114.33   A 7.50 5.01 90.0 0 1 1001.21 106.83   L 1026.67 106.83   A 7.50 5.01 -90.0 0 1 1031.68 114.33   L 1031.68 250.01   A 5.42 5.42 0.0 0 1 1026.26 255.43   L 1001.62 255.43   Z"
     id="path14" />
  <path
     fill="#ffffff"
     d="   M 702.75 108.00   C 704.89 108.08 706.81 109.14 706.86 111.40   C 707.06 121.76 707.97 131.49 708.06 140.95   C 708.29 164.07 707.84 183.27 708.20 203.56   Q 708.28 207.68 708.94 210.43   C 711.84 222.43 720.59 225.84 731.73 226.64   C 740.63 227.29 749.54 225.16 756.60 219.01   C 760.41 215.70 766.21 210.41 766.29 205.50   Q 766.77 175.83 766.59 140.44   Q 766.58 138.66 766.83 130.94   Q 766.98 126.37 766.92 121.42   C 766.89 118.05 767.19 115.56 767.51 111.29   A 2.59 2.58 -87.7 0 1 770.08 108.91   Q 783.34 108.91 795.75 107.87   C 801.66 107.38 801.21 111.53 801.55 116.69   Q 802.50 130.95 802.50 150.76   Q 802.49 213.58 802.23 230.75   C 802.17 235.02 802.17 240.47 801.69 245.83   Q 801.29 250.44 801.39 253.02   C 801.46 254.77 799.76 255.70 798.05 255.59   C 794.50 255.34 790.85 256.16 786.96 256.27   Q 776.12 256.59 772.93 256.65   A 3.40 3.34 -36.1 0 1 771.84 256.49   Q 769.22 255.63 767.46 252.70   A 1.52 1.50 30.5 0 1 767.26 251.95   L 767.26 247.45   A 1.18 1.18 0.0 0 0 765.34 246.53   Q 747.25 260.96 722.91 259.32   C 710.70 258.49 699.18 255.32 689.89 247.39   Q 678.74 237.88 674.39 222.56   Q 673.72 220.19 672.43 210.38   Q 671.76 205.31 671.83 198.06   Q 672.07 169.93 672.07 140.42   C 672.07 131.64 673.14 121.60 672.76 112.73   C 672.59 108.54 675.77 108.04 679.37 108.66   Q 680.75 108.90 685.88 108.42   Q 693.79 107.68 702.75 108.00   Z"
     id="path16" />
  <path
     fill="#26d3e3"
     d="   M 378.05 167.39   L 378.12 168.06   A 2.41 0.06 86.9 0 0 378.14 168.37   Q 378.14 168.64 377.56 168.41   A 0.26 0.26 0.0 0 0 377.21 168.60   Q 377.11 169.08 377.17 169.42   A 0.45 0.45 0.0 0 1 376.69 169.95   Q 375.39 169.82 375.12 169.61   Q 371.44 166.65 369.13 164.87   Q 360.19 157.99 349.10 154.65   Q 348.79 154.56 341.55 152.95   C 334.26 151.33 323.88 151.59 318.02 152.72   Q 313.36 153.61 303.16 157.10   Q 296.33 159.44 289.01 163.40   Q 274.52 171.24 262.02 181.78   Q 250.31 191.66 230.20 209.01   C 227.18 211.62 224.25 213.58 220.86 216.35   Q 208.05 226.80 190.46 235.96   Q 178.36 242.26 164.70 246.36   Q 159.42 247.95 156.35 248.49   C 152.67 249.13 149.25 250.42 145.13 250.89   C 140.85 251.37 133.23 252.28 127.92 252.33   Q 90.82 252.66 59.98 232.31   Q 57.37 230.59 49.98 224.76   C 40.67 217.42 32.96 208.72 25.63 199.13   Q 19.15 190.66 13.54 179.25   Q 12.16 176.45 11.45 175.20   Q 10.98 174.36 11.12 173.34   Q 11.35 171.66 12.30 172.18   A 0.39 0.38 20.9 0 0 12.87 171.93   Q 12.99 171.37 13.79 171.70   A 0.40 0.39 10.8 0 0 14.34 171.33   Q 14.33 171.00 14.56 170.62   A 1.20 1.20 0.0 0 1 16.45 170.41   C 18.13 172.17 21.15 175.50 24.06 177.63   Q 33.92 184.84 36.42 186.35   Q 44.46 191.21 54.80 195.46   C 63.43 199.01 70.52 200.30 80.24 202.04   Q 86.12 203.09 90.31 203.20   Q 111.80 203.73 127.75 199.95   Q 155.08 193.48 178.38 179.13   Q 188.41 172.95 201.61 162.85   C 219.49 149.15 227.29 142.93 237.98 135.74   Q 264.17 118.11 296.99 111.96   C 302.18 110.99 306.94 110.84 312.28 110.07   Q 313.79 109.85 316.48 110.23   C 321.54 110.94 330.86 111.65 338.28 113.91   C 355.48 119.15 368.57 131.61 375.54 148.15   C 377.73 153.34 378.82 158.87 380.25 164.76   Q 380.43 165.53 379.93 166.58   Q 379.53 167.40 378.63 166.98   A 0.41 0.41 0.0 0 0 378.05 167.39   Z"
     id="path18" />
</svg>
