<svg xmlns="http://www.w3.org/2000/svg" xmlns:xlink="http://www.w3.org/1999/xlink" id="Camada_2"
    data-name="Camada 2" viewBox="-0.02 6.74 91.26 76.11">
    <defs>
        <style> .cls-1 { fill: url(#radial-gradient-4); } .cls-2 { fill: url(#radial-gradient-3); }
            .cls-3 { fill: url(#radial-gradient-2); } .cls-4 { fill: url(#radial-gradient); } .cls-5
            { fill: #00d53b; } .cls-6 { fill: black; } </style>
        <radialGradient id="radial-gradient" cx="75.2" cy="165.4" fx="75.2" fy="165.4" r="70.29"
            gradientTransform="translate(-22.43 -140.67) rotate(-9.39)"
            gradientUnits="userSpaceOnUse">
            <stop offset="0" stop-color="#97e14b"></stop>
            <stop offset="1" stop-color="#29ac00"></stop>
        </radialGradient>
        <radialGradient id="radial-gradient-2" cx="75.2" cy="165.4" fx="75.2" fy="165.4" r="70.29"
            xlink:href="#radial-gradient"></radialGradient>
        <radialGradient id="radial-gradient-3" cx="75.2" cy="165.4" fx="75.2" fy="165.4" r="70.29"
            xlink:href="#radial-gradient"></radialGradient>
        <radialGradient id="radial-gradient-4" cx="75.2" cy="165.4" fx="75.2" fy="165.4" r="70.29"
            xlink:href="#radial-gradient"></radialGradient>
    </defs>
    <g id="Camada_1-2" data-name="Camada 1">
        <g>
            <path class="cls-4"
                d="M90.04,58.41c-.38-1.08-.78-2.15-1.18-3.22l-1.14-3.23-1.09-3.24-1.05-3.25-.97-3.27-.95-3.27-.88-3.29-.81-3.3-.77-3.3-.71-3.32-.66-3.33-.6-3.34-.55-3.34-.49-3.35-.44-3.36-.29-2.26-2.33.27-4.22.49-4.21.52c-2.81.34-5.61.73-8.42,1.11-2.8.41-5.6.77-8.4,1.21-.55.08-1.09.16-1.64.25l-1.16-1.82-1.22-1.92-2,1.23-3.62,2.22-3.6,2.25c-2.4,1.5-4.77,3.04-7.15,4.56-2.37,1.55-4.75,3.07-7.1,4.65-2.36,1.56-4.71,3.14-7.05,4.73l-1.97,1.33,1.27,1.88,1.52,2.23-1.54,2.39c-1.55,2.37-3.04,4.77-4.56,7.16-1.49,2.4-3.01,4.79-4.47,7.21-1.48,2.41-2.94,4.83-4.39,7.26l-1.22,2.04,1.95,1.16,3.56,2.11,3.6,2.04,3.64,1.96,3.69,1.88,3.72,1.8,3.77,1.71,3.8,1.63,3.83,1.53,3.86,1.45,3.89,1.38,3.93,1.27,3.95,1.18,3.97,1.09,4,.99c1.33.31,2.67.61,4.01.89l4.03.79-3.9-1.3c-1.28-.46-2.57-.91-3.87-1.35l-3.84-1.4-3.82-1.45-3.79-1.51-3.76-1.59-3.73-1.62-3.7-1.69-3.67-1.77-3.64-1.82-3.6-1.88-3.56-1.93-3.53-2-3.49-2.06-3.46-2.12-1.42-.91c1.14-1.72,2.26-3.44,3.37-5.16,1.55-2.37,3.04-4.77,4.56-7.16,1.5-2.4,3.01-4.79,4.48-7.21l.41-.68.15.21,2.48,3.32,2.55,3.26,2.62,3.21,2.69,3.14,2.76,3.08,2.83,3.01,2.88,2.95,2.94,2.89,3.02,2.81,3.08,2.74,3.13,2.67,3.2,2.58c1.09.85,2.17,1.68,3.27,2.51l3.32,2.41-2.98-2.82c-.97-.96-1.95-1.91-2.93-2.85l-2.89-2.9-2.85-2.93-2.79-2.97-2.74-3.03-2.7-3.05-2.64-3.1-2.58-3.15-2.53-3.18-2.47-3.22-2.42-3.26-2.35-3.31-2.3-3.34-1.22-1.83-.74-1.11-.28-.43-.19-.29-.72-1.12c1.16-.72,2.32-1.43,3.48-2.16.59-.37,1.18-.73,1.76-1.1,2.4-1.49,4.77-3.04,7.16-4.55,2.37-1.55,4.75-3.07,7.1-4.65l.51-.34,3.02-2,1.64-1.11.62.91,1.15,1.61.87,1.21,2.08,2.78,2.15,2.72,2.21,2.68,2.27,2.62,2.32,2.57,2.39,2.51,2.44,2.46,2.48,2.41,2.55,2.33,2.6,2.28c.88.74,1.76,1.49,2.65,2.21l2.71,2.14c.91.7,1.83,1.38,2.75,2.07l2.81,1.99-2.46-2.4c-.81-.81-1.62-1.62-2.44-2.42l-2.39-2.45-2.36-2.47-2.32-2.51-2.27-2.55-2.24-2.57-2.19-2.61-2.13-2.65-2.1-2.67-2.05-2.71-2.01-2.73-1.95-2.77-1.44-2.1c2.59-.32,5.16-.68,7.74-1.02,2.8-.4,5.6-.78,8.4-1.21l4.19-.64,1.96-.31.18,1.08.64,3.41.72,3.4.8,3.38.87,3.36.95,3.34,1.02,3.32,1.11,3.28,1.17,3.26,1.23,3.23,1.33,3.2,1.39,3.16c.49,1.05.97,2.09,1.47,3.13l1.55,3.09c.53,1.02,1.07,2.03,1.62,3.04l1.71,2.99-1.22-3.21Z"></path>
            <path class="cls-3"
                d="M48.1,39.85c-3.45,3-3.11,9.04.76,13.5,3.87,4.46,9.81,5.64,13.26,2.64,3.45-3,3.11-9.04-.76-13.5-3.87-4.46-9.81-5.64-13.26-2.64Z"></path>
            <path class="cls-2"
                d="M11.36,55.37s21.69,14.52,43.96,20.49c0,0-18.73-13.01-35.62-34.09l-8.33,13.61Z"></path>
            <path class="cls-1"
                d="M55.21,17.36c14.4,22.16,27.03,30.03,27.03,30.03-7.04-10.83-10.6-32.35-10.6-32.35l-16.43,2.32Z"></path>
        </g>
    </g>
</svg>